<mxfile host="app.diagrams.net" modified="2021-11-08T07:05:38.183Z" agent="5.0 (Windows NT 10.0; Win64; x64) AppleWebKit/537.36 (KHTML, like Gecko) Chrome/95.0.4638.69 Safari/537.36" etag="17ELmT6HozvwDXKGy638" version="15.6.8" type="github">
  <diagram id="RG3E-sD3YlX8yqjdBj83" name="Page-1">
    <mxGraphModel dx="1248" dy="626" grid="1" gridSize="10" guides="1" tooltips="1" connect="1" arrows="1" fold="1" page="1" pageScale="1" pageWidth="827" pageHeight="1169" math="0" shadow="0">
      <root>
        <mxCell id="0" />
        <mxCell id="1" parent="0" />
        <mxCell id="WJBTTtc7m-tYKizkTeWN-1" value="&lt;font style=&quot;font-size: 24px&quot;&gt;应用库&lt;/font&gt;" style="rounded=0;whiteSpace=wrap;html=1;" vertex="1" parent="1">
          <mxGeometry x="40" y="260" width="120" height="60" as="geometry" />
        </mxCell>
        <mxCell id="WJBTTtc7m-tYKizkTeWN-2" value="" style="shape=curlyBracket;whiteSpace=wrap;html=1;rounded=1;fontSize=24;" vertex="1" parent="1">
          <mxGeometry x="170" y="110" width="30" height="310" as="geometry" />
        </mxCell>
        <mxCell id="WJBTTtc7m-tYKizkTeWN-3" value="&lt;font style=&quot;font-size: 18px&quot;&gt;配置应用&lt;/font&gt;" style="rounded=0;whiteSpace=wrap;html=1;fontSize=24;" vertex="1" parent="1">
          <mxGeometry x="360" y="95" width="120" height="40" as="geometry" />
        </mxCell>
        <mxCell id="WJBTTtc7m-tYKizkTeWN-4" value="&lt;font style=&quot;font-size: 18px&quot;&gt;操作应用&lt;/font&gt;" style="rounded=0;whiteSpace=wrap;html=1;fontSize=24;" vertex="1" parent="1">
          <mxGeometry x="360" y="315" width="120" height="40" as="geometry" />
        </mxCell>
        <mxCell id="WJBTTtc7m-tYKizkTeWN-5" value="&lt;font style=&quot;font-size: 18px&quot;&gt;配置品类&lt;/font&gt;" style="rounded=0;whiteSpace=wrap;html=1;fontSize=24;" vertex="1" parent="1">
          <mxGeometry x="360" y="190" width="120" height="40" as="geometry" />
        </mxCell>
        <mxCell id="WJBTTtc7m-tYKizkTeWN-6" value="&lt;font style=&quot;font-size: 18px&quot;&gt;操作品类&lt;/font&gt;" style="rounded=0;whiteSpace=wrap;html=1;fontSize=24;" vertex="1" parent="1">
          <mxGeometry x="360" y="410" width="120" height="40" as="geometry" />
        </mxCell>
        <mxCell id="WJBTTtc7m-tYKizkTeWN-7" value="" style="shape=curlyBracket;whiteSpace=wrap;html=1;rounded=1;fontSize=18;" vertex="1" parent="1">
          <mxGeometry x="500" y="70" width="20" height="90" as="geometry" />
        </mxCell>
        <mxCell id="WJBTTtc7m-tYKizkTeWN-8" value="增，删，改，查应用配置" style="text;html=1;align=center;verticalAlign=middle;resizable=0;points=[];autosize=1;strokeColor=none;fillColor=none;fontSize=18;" vertex="1" parent="1">
          <mxGeometry x="520" y="100" width="210" height="30" as="geometry" />
        </mxCell>
        <mxCell id="WJBTTtc7m-tYKizkTeWN-9" value="" style="shape=curlyBracket;whiteSpace=wrap;html=1;rounded=1;fontSize=18;" vertex="1" parent="1">
          <mxGeometry x="500" y="300" width="20" height="70" as="geometry" />
        </mxCell>
        <mxCell id="WJBTTtc7m-tYKizkTeWN-10" value="获取应用列表" style="text;html=1;align=center;verticalAlign=middle;resizable=0;points=[];autosize=1;strokeColor=none;fillColor=none;fontSize=18;" vertex="1" parent="1">
          <mxGeometry x="520" y="300" width="120" height="30" as="geometry" />
        </mxCell>
        <mxCell id="WJBTTtc7m-tYKizkTeWN-11" value="添加/删除/移动应用位置" style="text;html=1;align=center;verticalAlign=middle;resizable=0;points=[];autosize=1;strokeColor=none;fillColor=none;fontSize=18;" vertex="1" parent="1">
          <mxGeometry x="510" y="340" width="210" height="30" as="geometry" />
        </mxCell>
        <mxCell id="WJBTTtc7m-tYKizkTeWN-12" value="" style="shape=curlyBracket;whiteSpace=wrap;html=1;rounded=1;fontSize=18;" vertex="1" parent="1">
          <mxGeometry x="500" y="170" width="20" height="90" as="geometry" />
        </mxCell>
        <mxCell id="WJBTTtc7m-tYKizkTeWN-13" value="增，删，改，查品类配置" style="text;html=1;align=center;verticalAlign=middle;resizable=0;points=[];autosize=1;strokeColor=none;fillColor=none;fontSize=18;" vertex="1" parent="1">
          <mxGeometry x="520" y="200" width="210" height="30" as="geometry" />
        </mxCell>
        <mxCell id="WJBTTtc7m-tYKizkTeWN-15" value="" style="shape=curlyBracket;whiteSpace=wrap;html=1;rounded=1;fontSize=18;" vertex="1" parent="1">
          <mxGeometry x="500" y="385" width="20" height="90" as="geometry" />
        </mxCell>
        <mxCell id="WJBTTtc7m-tYKizkTeWN-16" value="获取&lt;span&gt;品类&lt;/span&gt;列表" style="text;html=1;align=center;verticalAlign=middle;resizable=0;points=[];autosize=1;strokeColor=none;fillColor=none;fontSize=18;" vertex="1" parent="1">
          <mxGeometry x="520" y="415" width="120" height="30" as="geometry" />
        </mxCell>
        <mxCell id="WJBTTtc7m-tYKizkTeWN-18" value="&lt;font style=&quot;font-size: 18px&quot;&gt;运营侧&lt;/font&gt;" style="rounded=0;whiteSpace=wrap;html=1;fontSize=24;" vertex="1" parent="1">
          <mxGeometry x="200" y="135" width="120" height="40" as="geometry" />
        </mxCell>
        <mxCell id="WJBTTtc7m-tYKizkTeWN-19" value="&lt;font style=&quot;font-size: 18px&quot;&gt;用户侧&lt;/font&gt;" style="rounded=0;whiteSpace=wrap;html=1;fontSize=24;" vertex="1" parent="1">
          <mxGeometry x="200" y="355" width="120" height="40" as="geometry" />
        </mxCell>
        <mxCell id="WJBTTtc7m-tYKizkTeWN-20" value="" style="shape=curlyBracket;whiteSpace=wrap;html=1;rounded=1;fontSize=18;" vertex="1" parent="1">
          <mxGeometry x="330" y="110" width="20" height="90" as="geometry" />
        </mxCell>
        <mxCell id="WJBTTtc7m-tYKizkTeWN-21" value="" style="shape=curlyBracket;whiteSpace=wrap;html=1;rounded=1;fontSize=18;" vertex="1" parent="1">
          <mxGeometry x="330" y="330" width="20" height="90" as="geometry" />
        </mxCell>
      </root>
    </mxGraphModel>
  </diagram>
</mxfile>
